<svg xmlns="http://www.w3.org/2000/svg" width="50.682" height="46.508" viewBox="0 0 50.682 46.508">
  <g id="Group_200" data-name="Group 200" transform="translate(0.5 0.5)">
    <path id="Path_25" data-name="Path 25" d="M415.022,285.122a.526.526,0,0,0-.519.519v3.177H411.52a.524.524,0,0,0-.52.519v1.944a.528.528,0,0,0,.52.52H414.5v3.175a.526.526,0,0,0,.519.52h2.426a.526.526,0,0,0,.519-.52V291.8h2.965a.528.528,0,0,0,.519-.52v-1.944a.524.524,0,0,0-.519-.519h-2.965v-3.177a.526.526,0,0,0-.519-.519Z" transform="translate(-411 -285.122)" fill="none" stroke="#00e2ff" stroke-width="1"/>
    <path id="Path_26" data-name="Path 26" d="M452.453,287.6a.654.654,0,0,0-.648.65v2.43a.654.654,0,0,0,.648.649h7.579a.656.656,0,0,0,.65-.649v-2.43a.656.656,0,0,0-.65-.65Z" transform="translate(-411 -285.122)" fill="none" stroke="#00e2ff" stroke-width="1"/>
    <path id="Union_20" data-name="Union 20" d="M4746.019,6979.578a1.564,1.564,0,0,1-.565-2.829q.713-.483,1.446-.965a10.712,10.712,0,0,1-.878-1.7c-3.057-.095-5.521-5.346-5.521-11.813,0-5.835,2.007-10.685,4.647-11.64a18.537,18.537,0,0,1,1.082-3.224q-.405-.281-.8-.563a1.564,1.564,0,0,1,1.808-2.552q12,8.5,29.96,16.019l3.346,1.4-3.316,1.471a195.243,195.243,0,0,0-30.016,16.163,1.6,1.6,0,0,1-.564.238Zm2.169-28.28c2.063,1.743,3.521,6,3.521,10.969,0,4.48-1.182,8.378-2.927,10.38a6.96,6.96,0,0,0,.72,1.465,204.26,204.26,0,0,1,23.2-12.324,162.243,162.243,0,0,1-23.857-12.621A16.592,16.592,0,0,0,4748.188,6951.3Zm-3.512,2.128a6.211,6.211,0,0,0-1.4,1.738,8.262,8.262,0,0,0-.841,5.392,1.284,1.284,0,0,0,1.2,1.126,1.136,1.136,0,0,0,.319-.046,1.427,1.427,0,0,0,.9-1.652,5.069,5.069,0,0,1,.5-3.3,3.6,3.6,0,0,1,.8-1,1.563,1.563,0,0,0,.324-1.858,1.209,1.209,0,0,0-1.062-.687A1.139,1.139,0,0,0,4744.675,6953.426Z" transform="translate(-4734.057 -6934.07)" fill="none" stroke="#00e2ff" stroke-width="1"/>
  </g>
</svg>
