<svg xmlns="http://www.w3.org/2000/svg" width="48.029" height="46.457" viewBox="0 0 48.029 46.457">
  <g id="Group_3813" data-name="Group 3813" transform="translate(46.42 -370.393)" style="isolation: isolate">
    <path id="Path_6627" data-name="Path 6627" d="M10.152,398.387c-.838-7.562-4.35-14.612-8.542-17.142a6.916,6.916,0,0,0-6.3-.6c-7.427,2.916-4.508,13.4-4.477,13.5a.557.557,0,0,0,.69.382.559.559,0,0,0,.383-.691c-.027-.1-2.669-9.611,3.812-12.154a5.758,5.758,0,0,1,5.311.521c3.913,2.362,7.206,9.069,8.008,16.309,1.026,9.254.013,15.928-2.779,18.313-1.279,1.092-2.917,1.344-5,.772-5.554-1.522-11.284-5.572-10.709-12.375.386-4.57.776-6.525.78-6.545a.558.558,0,0,0-.437-.658.558.558,0,0,0-.658.436,65.908,65.908,0,0,0-.8,6.673c-.414,4.908,2.4,11.044,11.528,13.546a8.665,8.665,0,0,0,2.3.334,5.561,5.561,0,0,0,3.728-1.334C11.2,414.073,10.779,404.044,10.152,398.387Z" transform="translate(-8.938 -2.434)" fill="#00e2ff"/>
    <path id="Path_6628" data-name="Path 6628" d="M-14.123,394.651h.035a.559.559,0,0,0,.557-.523.558.558,0,0,0-.522-.593c-.3-.02-7.246-.54-7.747-6.553a.553.553,0,0,0-.03-.1c.02-.231.032-.465.032-.7,0-4.454-.109-15.122-.11-15.229a.559.559,0,0,0-.558-.553h-.006a.558.558,0,0,0-.552.564c0,.107.11,10.769.11,15.218,0,2.485-1.3,4.465-3.85,5.92a.579.579,0,0,0,.056-.107c.03-.106,2.949-10.588-4.478-13.5a6.916,6.916,0,0,0-6.3.6c-4.191,2.531-7.7,9.58-8.542,17.142-.627,5.658-1.05,15.687,3.164,19.285a5.562,5.562,0,0,0,3.728,1.334,8.725,8.725,0,0,0,2.3-.334c9.132-2.5,11.943-8.638,11.528-13.546a66.2,66.2,0,0,0-.8-6.673.559.559,0,0,0-.659-.436.559.559,0,0,0-.436.659c0,.019.394,1.974.78,6.544.575,6.8-5.155,10.853-10.709,12.375-2.09.572-3.727.32-5-.772-2.792-2.384-3.8-9.059-2.779-18.313.8-7.24,4.1-13.946,8.008-16.309a5.762,5.762,0,0,1,5.312-.521c6.48,2.544,3.839,12.059,3.812,12.155a.558.558,0,0,0,.383.69.543.543,0,0,0,.11.01,17.642,17.642,0,0,1-3.032,1.178.559.559,0,0,0-.378.693.558.558,0,0,0,.535.4.579.579,0,0,0,.158-.023c3.89-1.143,6.444-3,7.561-5.43C-20.6,394.177-14.2,394.646-14.123,394.651Z" fill="#00e2ff"/>
    <path id="Path_6629" data-name="Path 6629" d="M-30.553,399.8a.557.557,0,0,0,.381-.151.559.559,0,0,0,.026-.789l-3.39-3.619a.558.558,0,0,0-.789-.026.559.559,0,0,0-.026.789l3.39,3.618A.557.557,0,0,0-30.553,399.8Z" transform="translate(-2.974 -6.156)" fill="#00e2ff"/>
    <path id="Path_6630" data-name="Path 6630" d="M-35.964,405.933a.558.558,0,0,0,.524.364.55.55,0,0,0,.194-.035l3.887-1.44a.558.558,0,0,0,.329-.717.558.558,0,0,0-.718-.329l-3.886,1.439A.559.559,0,0,0-35.964,405.933Z" transform="translate(-2.601 -8.322)" fill="#00e2ff"/>
    <path id="Path_6631" data-name="Path 6631" d="M-29.441,412.805h.015a.557.557,0,0,0,.558-.543c.122-4.581,2.588-5.856,2.7-5.912a.559.559,0,0,0,.262-.742.559.559,0,0,0-.744-.266c-.131.062-3.2,1.575-3.336,6.89A.558.558,0,0,0-29.441,412.805Z" transform="translate(-4.101 -8.708)" fill="#00e2ff"/>
    <path id="Path_6632" data-name="Path 6632" d="M3.242,394.959l-3.39,3.619a.559.559,0,1,0,.816.763l3.39-3.618a.559.559,0,0,0-.816-.764Z" transform="translate(-11.509 -6.086)" fill="#00e2ff"/>
    <path id="Path_6633" data-name="Path 6633" d="M.571,403.826a.558.558,0,0,0,.329.717l3.886,1.44a.56.56,0,0,0,.718-.329.559.559,0,0,0-.329-.718L1.289,403.5A.557.557,0,0,0,.571,403.826Z" transform="translate(-11.718 -8.252)" fill="#00e2ff"/>
    <path id="Path_6634" data-name="Path 6634" d="M-3.52,405.063a.555.555,0,0,0-.74.263.56.56,0,0,0,.257.745c.105.052,2.58,1.324,2.7,5.912a.559.559,0,0,0,.558.543h.015a.558.558,0,0,0,.543-.573C-.325,406.638-3.389,405.125-3.52,405.063Z" transform="translate(-10.507 -8.638)" fill="#00e2ff"/>
  </g>
</svg>
