<svg xmlns="http://www.w3.org/2000/svg" width="48" height="44.12" viewBox="0 0 48 44.12">
  <g id="Group_3819" data-name="Group 3819" transform="translate(-225.688 -371.928)">
    <g id="Group_3814" data-name="Group 3814" transform="translate(225.688 379.951)">
      <path id="Path_6635" data-name="Path 6635" d="M247.215,416.047a49.212,49.212,0,0,1-8.769-.76c-8.553-1.555-11.322-7.909-11.436-8.178a18.407,18.407,0,0,1-.592-12,1.77,1.77,0,0,1,1.786-1.324c1.28.051,2.65.054,4.074.01a11.92,11.92,0,0,1,10.665,5.5.262.262,0,0,0,.294.115c.075-.02,7.664-2.067,11.021,3.927a1.024,1.024,0,0,0,.64.517c1.153.265,2.6.5,2.959.114.174-.188.128-.4-.131-1.133-.518-1.48-1.729-4.941-1.257-12.121a.249.249,0,0,0-.073-.193,8.17,8.17,0,0,0-3.349-1.964,5.1,5.1,0,0,0-1.528-.075,2.716,2.716,0,0,1-2.519-.959c-1.581-1.5-2.864-3.716-2.639-4.562a.5.5,0,0,1,.135-.231,2.337,2.337,0,0,1,1.442-.651.259.259,0,0,0,.271-.25c0-.509.236-1.853,1.313-1.884l.123,0c1.8,0,7.018,1.066,8.207,2.675a12.86,12.86,0,0,1,1.359,3.021,20.839,20.839,0,0,0,3.1,6.122l.492.612c2.738,3.387,6.873,8.5,5.853,17.96a1.11,1.11,0,0,1-.381.734C265.35,413.557,256.719,416.047,247.215,416.047ZM228.131,394.8a.718.718,0,0,0-.7.543,17.487,17.487,0,0,0,.54,11.377h0a14.473,14.473,0,0,0,10.665,7.567c12.2,2.22,25.3-.875,28.95-3.98a.127.127,0,0,0,.03-.076c.976-9.047-3-13.968-5.634-17.224l-.5-.62a21.637,21.637,0,0,1-3.256-6.405,12.447,12.447,0,0,0-1.223-2.767c-.86-1.163-5.582-2.252-7.362-2.252h-.087c-.136,0-.3.476-.308.887a1.276,1.276,0,0,1-1.282,1.247h0a1.33,1.33,0,0,0-.586.23,8.873,8.873,0,0,0,2.343,3.474,1.728,1.728,0,0,0,1.722.674,6.124,6.124,0,0,1,1.829.1,9.1,9.1,0,0,1,3.86,2.242,1.25,1.25,0,0,1,.371.969c-.459,6.979.705,10.306,1.2,11.726.268.767.52,1.489-.079,2.139-.406.444-1.083.86-3.974.2a2.057,2.057,0,0,1-1.314-1.018c-2.932-5.234-9.756-3.455-9.824-3.436a1.317,1.317,0,0,1-1.475-.578,10.909,10.909,0,0,0-9.733-5c-1.448.045-2.845.043-4.15-.009Z" transform="translate(-225.688 -379.951)" fill="#00e2ff"/>
    </g>
    <g id="Group_3815" data-name="Group 3815" transform="translate(239.414 400.97)">
      <path id="Path_6636" data-name="Path 6636" d="M261.564,423.915c-6.384,0-13.884-6.642-14.277-6.994a.714.714,0,1,1,.953-1.063c.112.1,11.194,9.915,16.9,5.484a.713.713,0,1,1,.875,1.127A7.056,7.056,0,0,1,261.564,423.915Z" transform="translate(-247.05 -415.676)" fill="#00e2ff"/>
    </g>
    <g id="Group_3816" data-name="Group 3816" transform="translate(256.471 371.927)">
      <path id="Path_6637" data-name="Path 6637" d="M273.185,380.734a.714.714,0,0,1-.505-1.218l7.38-7.38a.714.714,0,1,1,1.01,1.009l-7.381,7.38A.71.71,0,0,1,273.185,380.734Z" transform="translate(-272.471 -371.927)" fill="#00e2ff"/>
    </g>
    <g id="Group_3817" data-name="Group 3817" transform="translate(260.294 378.444)">
      <path id="Path_6638" data-name="Path 6638" d="M277.009,386.793a.714.714,0,0,1-.282-1.37l10.293-4.417a.714.714,0,1,1,.563,1.312l-10.293,4.417A.722.722,0,0,1,277.009,386.793Z" transform="translate(-276.294 -380.947)" fill="#00e2ff"/>
    </g>
    <g id="Group_3818" data-name="Group 3818" transform="translate(263.519 385.679)">
      <path id="Path_6639" data-name="Path 6639" d="M280.231,393.024a.714.714,0,0,1-.085-1.422l8.742-1.06a.714.714,0,1,1,.172,1.417l-8.742,1.06A.848.848,0,0,1,280.231,393.024Z" transform="translate(-279.519 -390.537)" fill="#00e2ff"/>
    </g>
  </g>
</svg>
