<svg xmlns="http://www.w3.org/2000/svg" width="49.862" height="43.603" viewBox="0 0 49.862 43.603">
  <path id="Path_15" data-name="Path 15" d="M668,186.788a1.752,1.752,0,0,1-3.186.474l-3.8-6.143H647.091a16.38,16.38,0,0,0,1.206,1.35l1.823,1.822,16.539,16.553a1.773,1.773,0,0,0,2.5,0l16.533-16.553,1.822-1.822a16.572,16.572,0,0,0,1.206-1.35H673.93a1.754,1.754,0,0,1-1.652-1.166l-1.423-4.01Zm9.636-27.9a15.627,15.627,0,0,0-9.155,4.522l-.575.575-.575-.575a15.613,15.613,0,0,0-9.049-4.522h-3.519a12.664,12.664,0,0,0-7.4,3.586c-3.975,3.98-4.672,9.979-2.4,15.135H662a1.751,1.751,0,0,1,1.49.832l2.162,3.5,3.261-12.387a1.753,1.753,0,0,1,3.347-.14l2.909,8.194h15.677c2.268-5.156,1.568-11.155-2.407-15.135a12.558,12.558,0,0,0-7.428-3.586Z" transform="translate(-642.972 -158.392)" fill="none" stroke="#00e2ff" stroke-width="1"/>
</svg>
