<svg xmlns="http://www.w3.org/2000/svg" width="54.324" height="38.756" viewBox="0 0 54.324 38.756">
  <path id="Union_21" data-name="Union 21" d="M2.6,37.756A2.6,2.6,0,0,1,0,35.16V20.879a2.6,2.6,0,0,1,3.92-2.233q11.455,6.795,22.74,6.777,11.3,0,22.741-6.777a2.573,2.573,0,0,1,1.321-.368,2.6,2.6,0,0,1,2.6,2.6V35.16a2.6,2.6,0,0,1-2.6,2.6ZM7.385,16.78a1.688,1.688,0,0,1,.85-3.147,1.669,1.669,0,0,1,.844.228c12.25,7.1,23.864,7.1,35.114.031a1.688,1.688,0,1,1,1.8,2.858,35.232,35.232,0,0,1-18.953,5.817Q17.379,22.565,7.385,16.78Zm12.447-4.8a1.688,1.688,0,1,1,2.14-2.61l2.909,2.384V1.688a1.688,1.688,0,1,1,3.376,0V11.754l2.91-2.386a1.687,1.687,0,1,1,2.139,2.61l-6.821,5.465Z" transform="translate(0.5 0.5)" fill="none" stroke="#00e2ff" stroke-width="1"/>
</svg>
